<svg xmlns="http://www.w3.org/2000/svg" style="display: none;">
 <defs>
     <symbol id="icon-hamburger-open" viewBox="0 0 256 256" fill = "#000">
        <rect width="256" height="256" fill="none"/><line x1="40" y1="128" x2="216" y2="128" fill="none" stroke="#000" stroke-linecap="round" stroke-linejoin="round" stroke-width="16"/><line x1="40" y1="64" x2="216" y2="64" fill="none" stroke="#000" stroke-linecap="round" stroke-linejoin="round" stroke-width="16"/><line x1="40" y1="192" x2="216" y2="192" fill="none" stroke="#000" stroke-linecap="round" stroke-linejoin="round" stroke-width="16"/>
    </symbol>
    <symbol id="icon-hamburger-close" viewBox="0 0 256 256" fill = "#000">
        <path d="M205.66,194.34a8,8,0,0,1-11.32,11.32L128,139.31,61.66,205.66a8,8,0,0,1-11.32-11.32L116.69,128,50.34,61.66A8,8,0,0,1,61.66,50.34L128,116.69l66.34-66.35a8,8,0,0,1,11.32,11.32L139.31,128Z"></path>
    </symbol>
   <symbol id = "icon-facebook" fill="#000" viewBox="0 0 256 256">
      <path d="M128,24A104,104,0,1,0,232,128,104.11,104.11,0,0,0,128,24Zm8,191.63V152h24a8,8,0,0,0,0-16H136V112a16,16,0,0,1,16-16h16a8,8,0,0,0,0-16H152a32,32,0,0,0-32,32v24H96a8,8,0,0,0,0,16h24v63.63a88,88,0,1,1,16,0Z">
      </path>
   </symbol>
   <symbol id = "icon-code" fill="#000" viewBox="0 0 256 256">
      <path d="M43.18,128a29.78,29.78,0,0,1,8,10.26c4.8,9.9,4.8,22,4.8,33.74,0,24.31,1,36,24,36a8,8,0,0,1,0,16c-17.48,0-29.32-6.14-35.2-18.26-4.8-9.9-4.8-22-4.8-33.74,0-24.31-1-36-24-36a8,8,0,0,1,0-16c23,0,24-11.69,24-36,0-11.72,0-23.84,4.8-33.74C50.68,38.14,62.52,32,80,32a8,8,0,0,1,0,16C57,48,56,59.69,56,84c0,11.72,0,23.84-4.8,33.74A29.78,29.78,0,0,1,43.18,128ZM240,120c-23,0-24-11.69-24-36,0-11.72,0-23.84-4.8-33.74C205.32,38.14,193.48,32,176,32a8,8,0,0,0,0,16c23,0,24,11.69,24,36,0,11.72,0,23.84,4.8,33.74a29.78,29.78,0,0,0,8,10.26,29.78,29.78,0,0,0-8,10.26c-4.8,9.9-4.8,22-4.8,33.74,0,24.31-1,36-24,36a8,8,0,0,0,0,16c17.48,0,29.32-6.14,35.2-18.26,4.8-9.9,4.8-22,4.8-33.74,0-24.31,1-36,24-36a8,8,0,0,0,0-16Z">
      </path>
   </symbol>
   <symbol id = "icon-envelope" fill = "#000" viewBox="0 0 256 256">
      <path d="M224,48H32a8,8,0,0,0-8,8V192a16,16,0,0,0,16,16H216a16,16,0,0,0,16-16V56A8,8,0,0,0,224,48ZM203.43,64,128,133.15,52.57,64ZM216,192H40V74.19l82.59,75.71a8,8,0,0,0,10.82,0L216,74.19V192Z">
      </path>
   </symbol>
   <symbol id="icon-phone" fill="#000" viewBox="0 0 256 256">
      <path d="M222.37,158.46l-47.11-21.11-.13-.06a16,16,0,0,0-15.17,1.4,8.12,8.12,0,0,0-.75.56L134.87,160c-15.42-7.49-31.34-23.29-38.83-38.51l20.78-24.71c.2-.25.39-.5.57-.77a16,16,0,0,0,1.32-15.06l0-.12L97.54,33.64a16,16,0,0,0-16.62-9.52A56.26,56.26,0,0,0,32,80c0,79.4,64.6,144,144,144a56.26,56.26,0,0,0,55.88-48.92A16,16,0,0,0,222.37,158.46ZM176,208A128.14,128.14,0,0,1,48,80,40.2,40.2,0,0,1,82.87,40a.61.61,0,0,0,0,.12l21,47L83.2,111.86a6.13,6.13,0,0,0-.57.77,16,16,0,0,0-1,15.7c9.06,18.53,27.73,37.06,46.46,46.11a16,16,0,0,0,15.75-1.14,8.44,8.44,0,0,0,.74-.56L168.89,152l47,21.05h0s.08,0,.11,0A40.21,40.21,0,0,1,176,208Z">
      </path>
   </symbol>
   <symbol id="icon--swiper-arrow-next" fill="#000" viewBox="0 0 256 256">
      <path d="M221.66,133.66l-72,72a8,8,0,0,1-11.32-11.32L196.69,136H40a8,8,0,0,1,0-16H196.69L138.34,61.66a8,8,0,0,1,11.32-11.32l72,72A8,8,0,0,1,221.66,133.66Z">
      </path>
  </symbol>
   <symbol id="icon--swiper-arrow-prev" fill="#000" viewBox="0 0 256 256">
      <path d="M224,128a8,8,0,0,1-8,8H59.31l58.35,58.34a8,8,0,0,1-11.32,11.32l-72-72a8,8,0,0,1,0-11.32l72-72a8,8,0,0,1,11.32,11.32L59.31,120H216A8,8,0,0,1,224,128Z">
      </path>
   </symbol>
 </defs>
</svg>

